<mxfile host="app.diagrams.net" modified="2023-10-27T06:53:05.609Z" agent="Mozilla/5.0 (Macintosh; Intel Mac OS X 10_15_7) AppleWebKit/605.1.15 (KHTML, like Gecko) Version/17.0 Safari/605.1.15" etag="G1Xn2pIh75GLPCap5nPX" version="22.0.8" type="google">
  <diagram name="Page-1" id="7a44bMWzMAyj1nKMhP8L">
    <mxGraphModel grid="1" page="1" gridSize="10" guides="1" tooltips="1" connect="1" arrows="1" fold="1" pageScale="1" pageWidth="827" pageHeight="1169" math="0" shadow="0">
      <root>
        <mxCell id="0" />
        <mxCell id="1" parent="0" />
        <mxCell id="kDVGe-bHcPxCvndrDcbj-1" value="" style="rounded=0;whiteSpace=wrap;html=1;" vertex="1" parent="1">
          <mxGeometry x="-60" y="-130" width="770" height="400" as="geometry" />
        </mxCell>
        <mxCell id="kDVGe-bHcPxCvndrDcbj-2" value="Today" style="rounded=0;whiteSpace=wrap;html=1;" vertex="1" parent="1">
          <mxGeometry x="224" y="-120" width="100" height="30" as="geometry" />
        </mxCell>
        <mxCell id="kDVGe-bHcPxCvndrDcbj-3" value="Weekly" style="rounded=0;whiteSpace=wrap;html=1;" vertex="1" parent="1">
          <mxGeometry x="340" y="-120" width="100" height="30" as="geometry" />
        </mxCell>
        <mxCell id="kDVGe-bHcPxCvndrDcbj-4" value="Monthly" style="rounded=0;whiteSpace=wrap;html=1;" vertex="1" parent="1">
          <mxGeometry x="450" y="-120" width="100" height="30" as="geometry" />
        </mxCell>
        <mxCell id="kDVGe-bHcPxCvndrDcbj-5" value="Create Event" style="rounded=0;whiteSpace=wrap;html=1;" vertex="1" parent="1">
          <mxGeometry x="-50" y="-120" width="100" height="30" as="geometry" />
        </mxCell>
        <mxCell id="kDVGe-bHcPxCvndrDcbj-6" value="time&amp;nbsp;" style="rounded=0;whiteSpace=wrap;html=1;" vertex="1" parent="1">
          <mxGeometry x="-50" y="-70" width="110" height="330" as="geometry" />
        </mxCell>
        <mxCell id="kDVGe-bHcPxCvndrDcbj-7" value="day" style="rounded=0;whiteSpace=wrap;html=1;" vertex="1" parent="1">
          <mxGeometry x="70" y="-70" width="630" height="40" as="geometry" />
        </mxCell>
        <mxCell id="kDVGe-bHcPxCvndrDcbj-8" value="day 1" style="rounded=0;whiteSpace=wrap;html=1;" vertex="1" parent="1">
          <mxGeometry x="70" y="-70" width="100" height="40" as="geometry" />
        </mxCell>
        <mxCell id="kDVGe-bHcPxCvndrDcbj-9" value="time 1" style="rounded=0;whiteSpace=wrap;html=1;" vertex="1" parent="1">
          <mxGeometry x="-45" y="-30" width="100" height="40" as="geometry" />
        </mxCell>
        <mxCell id="kDVGe-bHcPxCvndrDcbj-10" value="event day 1 time 1" style="rounded=0;whiteSpace=wrap;html=1;" vertex="1" parent="1">
          <mxGeometry x="70" y="-30" width="100" height="40" as="geometry" />
        </mxCell>
        <mxCell id="kDVGe-bHcPxCvndrDcbj-15" style="edgeStyle=orthogonalEdgeStyle;rounded=0;orthogonalLoop=1;jettySize=auto;html=1;" edge="1" parent="1" source="kDVGe-bHcPxCvndrDcbj-11" target="kDVGe-bHcPxCvndrDcbj-14">
          <mxGeometry relative="1" as="geometry" />
        </mxCell>
        <mxCell id="TZ9lYx6xm2ryAlxR-Q0T-6" style="edgeStyle=orthogonalEdgeStyle;rounded=0;orthogonalLoop=1;jettySize=auto;html=1;" edge="1" parent="1" source="kDVGe-bHcPxCvndrDcbj-11" target="kDVGe-bHcPxCvndrDcbj-13">
          <mxGeometry relative="1" as="geometry" />
        </mxCell>
        <mxCell id="kDVGe-bHcPxCvndrDcbj-11" value="Calendar App" style="rounded=0;whiteSpace=wrap;html=1;" vertex="1" parent="1">
          <mxGeometry x="324" y="320" width="100" height="50" as="geometry" />
        </mxCell>
        <mxCell id="kDVGe-bHcPxCvndrDcbj-13" value="Timeline Component&lt;span style=&quot;text-align: start;&quot; id=&quot;docs-internal-guid-3974c308-7fff-20a9-7812-67aa71c9e18a&quot;&gt;&lt;/span&gt;" style="rounded=0;whiteSpace=wrap;html=1;" vertex="1" parent="1">
          <mxGeometry x="-440" y="660" width="120" height="60" as="geometry" />
        </mxCell>
        <mxCell id="kDVGe-bHcPxCvndrDcbj-19" style="edgeStyle=orthogonalEdgeStyle;rounded=0;orthogonalLoop=1;jettySize=auto;html=1;entryX=0.5;entryY=0;entryDx=0;entryDy=0;" edge="1" parent="1" source="kDVGe-bHcPxCvndrDcbj-14" target="kDVGe-bHcPxCvndrDcbj-18">
          <mxGeometry relative="1" as="geometry" />
        </mxCell>
        <mxCell id="TZ9lYx6xm2ryAlxR-Q0T-4" style="edgeStyle=orthogonalEdgeStyle;rounded=0;orthogonalLoop=1;jettySize=auto;html=1;" edge="1" parent="1" source="kDVGe-bHcPxCvndrDcbj-14" target="kDVGe-bHcPxCvndrDcbj-37">
          <mxGeometry relative="1" as="geometry" />
        </mxCell>
        <mxCell id="kDVGe-bHcPxCvndrDcbj-14" value="Header Component&lt;span style=&quot;text-align: start;&quot; id=&quot;docs-internal-guid-3974c308-7fff-20a9-7812-67aa71c9e18a&quot;&gt;&lt;/span&gt;" style="rounded=0;whiteSpace=wrap;html=1;" vertex="1" parent="1">
          <mxGeometry x="520" y="390" width="120" height="60" as="geometry" />
        </mxCell>
        <mxCell id="kDVGe-bHcPxCvndrDcbj-18" value="Create Event Button" style="rounded=0;whiteSpace=wrap;html=1;" vertex="1" parent="1">
          <mxGeometry x="760" y="520" width="120" height="60" as="geometry" />
        </mxCell>
        <mxCell id="kDVGe-bHcPxCvndrDcbj-27" style="edgeStyle=orthogonalEdgeStyle;rounded=0;orthogonalLoop=1;jettySize=auto;html=1;entryX=1;entryY=0.5;entryDx=0;entryDy=0;" edge="1" parent="1" source="kDVGe-bHcPxCvndrDcbj-20" target="kDVGe-bHcPxCvndrDcbj-26">
          <mxGeometry relative="1" as="geometry" />
        </mxCell>
        <mxCell id="kDVGe-bHcPxCvndrDcbj-20" value="Create Event Modal" style="rounded=0;whiteSpace=wrap;html=1;" vertex="1" parent="1">
          <mxGeometry x="750" y="1020" width="120" height="60" as="geometry" />
        </mxCell>
        <mxCell id="kDVGe-bHcPxCvndrDcbj-22" style="edgeStyle=orthogonalEdgeStyle;rounded=0;orthogonalLoop=1;jettySize=auto;html=1;entryX=0.542;entryY=-0.021;entryDx=0;entryDy=0;entryPerimeter=0;" edge="1" parent="1" source="kDVGe-bHcPxCvndrDcbj-18" target="kDVGe-bHcPxCvndrDcbj-20">
          <mxGeometry relative="1" as="geometry" />
        </mxCell>
        <mxCell id="TZ9lYx6xm2ryAlxR-Q0T-5" style="edgeStyle=orthogonalEdgeStyle;rounded=0;orthogonalLoop=1;jettySize=auto;html=1;entryX=1;entryY=0.5;entryDx=0;entryDy=0;" edge="1" parent="1" source="kDVGe-bHcPxCvndrDcbj-23" target="kDVGe-bHcPxCvndrDcbj-13">
          <mxGeometry relative="1" as="geometry" />
        </mxCell>
        <mxCell id="kDVGe-bHcPxCvndrDcbj-23" value="calendarData state" style="shape=parallelogram;perimeter=parallelogramPerimeter;whiteSpace=wrap;html=1;fixedSize=1;" vertex="1" parent="1">
          <mxGeometry x="-190" y="655" width="140" height="70" as="geometry" />
        </mxCell>
        <mxCell id="kDVGe-bHcPxCvndrDcbj-26" value="Create Button" style="ellipse;whiteSpace=wrap;html=1;" vertex="1" parent="1">
          <mxGeometry x="354" y="1010" width="120" height="80" as="geometry" />
        </mxCell>
        <mxCell id="kDVGe-bHcPxCvndrDcbj-31" value="" style="edgeStyle=orthogonalEdgeStyle;rounded=0;orthogonalLoop=1;jettySize=auto;html=1;" edge="1" parent="1" source="kDVGe-bHcPxCvndrDcbj-26" target="kDVGe-bHcPxCvndrDcbj-29">
          <mxGeometry relative="1" as="geometry">
            <mxPoint x="304" y="1060" as="sourcePoint" />
            <mxPoint x="140" y="720" as="targetPoint" />
          </mxGeometry>
        </mxCell>
        <mxCell id="kDVGe-bHcPxCvndrDcbj-46" style="edgeStyle=orthogonalEdgeStyle;rounded=0;orthogonalLoop=1;jettySize=auto;html=1;entryX=0.5;entryY=1;entryDx=0;entryDy=0;" edge="1" parent="1" source="kDVGe-bHcPxCvndrDcbj-29" target="kDVGe-bHcPxCvndrDcbj-45">
          <mxGeometry relative="1" as="geometry" />
        </mxCell>
        <mxCell id="kDVGe-bHcPxCvndrDcbj-29" value="createEvent API()" style="rounded=1;whiteSpace=wrap;html=1;" vertex="1" parent="1">
          <mxGeometry x="90" y="890" width="120" height="60" as="geometry" />
        </mxCell>
        <mxCell id="kDVGe-bHcPxCvndrDcbj-37" value="Today Butto" style="rounded=0;whiteSpace=wrap;html=1;" vertex="1" parent="1">
          <mxGeometry x="340" y="520" width="130" height="60" as="geometry" />
        </mxCell>
        <mxCell id="kDVGe-bHcPxCvndrDcbj-41" style="edgeStyle=orthogonalEdgeStyle;rounded=0;orthogonalLoop=1;jettySize=auto;html=1;entryX=1;entryY=0.5;entryDx=0;entryDy=0;" edge="1" parent="1" source="kDVGe-bHcPxCvndrDcbj-37" target="kDVGe-bHcPxCvndrDcbj-30">
          <mxGeometry relative="1" as="geometry" />
        </mxCell>
        <mxCell id="kDVGe-bHcPxCvndrDcbj-43" value="type: today" style="edgeLabel;html=1;align=center;verticalAlign=middle;resizable=0;points=[];" connectable="0" vertex="1" parent="kDVGe-bHcPxCvndrDcbj-41">
          <mxGeometry x="-0.2083" y="-1" relative="1" as="geometry">
            <mxPoint as="offset" />
          </mxGeometry>
        </mxCell>
        <mxCell id="kDVGe-bHcPxCvndrDcbj-47" value="" style="edgeStyle=orthogonalEdgeStyle;rounded=0;orthogonalLoop=1;jettySize=auto;html=1;entryX=0.5;entryY=0;entryDx=0;entryDy=0;" edge="1" parent="1" source="kDVGe-bHcPxCvndrDcbj-30" target="kDVGe-bHcPxCvndrDcbj-45">
          <mxGeometry relative="1" as="geometry">
            <mxPoint x="380" y="610" as="sourcePoint" />
            <mxPoint x="-120" y="650" as="targetPoint" />
          </mxGeometry>
        </mxCell>
        <mxCell id="TZ9lYx6xm2ryAlxR-Q0T-7" style="edgeStyle=orthogonalEdgeStyle;rounded=0;orthogonalLoop=1;jettySize=auto;html=1;entryX=1;entryY=0.5;entryDx=0;entryDy=0;" edge="1" parent="1" source="kDVGe-bHcPxCvndrDcbj-45" target="kDVGe-bHcPxCvndrDcbj-23">
          <mxGeometry relative="1" as="geometry" />
        </mxCell>
        <mxCell id="kDVGe-bHcPxCvndrDcbj-45" value="sort events by time" style="ellipse;whiteSpace=wrap;html=1;aspect=fixed;" vertex="1" parent="1">
          <mxGeometry x="110" y="650" width="80" height="80" as="geometry" />
        </mxCell>
        <mxCell id="kDVGe-bHcPxCvndrDcbj-30" value="getEvents(type) API&lt;br&gt;type: today, weekly, monthly" style="rounded=1;whiteSpace=wrap;html=1;" vertex="1" parent="1">
          <mxGeometry x="90" y="520" width="120" height="60" as="geometry" />
        </mxCell>
        <mxCell id="LhjAsECW9PVkXBQ84Pof-1" value="" style="rounded=0;whiteSpace=wrap;html=1;" vertex="1" parent="1">
          <mxGeometry x="-260" y="130" width="120" height="60" as="geometry" />
        </mxCell>
      </root>
    </mxGraphModel>
  </diagram>
</mxfile>
